<svg data-v-423bf9ae="" xmlns="http://www.w3.org/2000/svg" viewBox="0 0 370 90" class="iconLeft"><!----><!----><!----><g data-v-423bf9ae="" id="d3b068cc-7edd-42ca-8494-0187b61aa429" fill="white" transform="matrix(6.036216979508284,0,0,6.036216979508284,129.48132979515347,10.77464645776682)"><path d="M3.54 8.81L5.46 8.81L5.80 10.50L8.74 10.50L6.36 0.70L2.63 0.70L0.27 10.50L3.21 10.50ZM4.98 6.41L4.00 6.41L4.49 3.95ZM12.84 7.35L12.84 4.94L9.35 4.94L9.35 7.35ZM18.80 7.49C18.48 7.87 17.99 8.05 17.43 8.05C16.73 8.05 16.41 7.64 16.41 7.11C16.41 6.59 16.73 6.17 17.43 6.17C18.03 6.17 18.40 6.33 18.80 6.52C18.80 6.52 18.80 4.06 18.80 4.06C18.30 3.75 17.67 3.58 17.02 3.58C14.97 3.58 13.45 5.17 13.45 7.11C13.45 9.07 14.97 10.64 17.02 10.64C17.67 10.64 18.30 10.47 18.80 10.19C18.80 10.22 18.80 7.49 18.80 7.49ZM22.43 10.50L22.43 7.28C22.43 6.85 22.53 6.34 23.09 6.34C23.31 6.34 23.55 6.57 23.55 6.82L23.55 10.50L26.49 10.50L26.49 6.82C26.49 5.24 26.17 3.60 24.42 3.60C23.17 3.60 22.78 4.05 22.43 4.24L22.43 0.70L19.49 0.70L19.49 10.50ZM31.14 10.50L34.05 10.50L34.05 3.74L31.14 3.74L31.14 4.20C30.72 3.78 30.14 3.57 29.57 3.57C27.96 3.57 27.05 5.14 27.05 7.13C27.05 9.13 27.96 10.61 29.57 10.61C30.14 10.61 30.73 10.46 31.14 10.02ZM31.15 7.13C31.15 7.67 30.93 8.08 30.41 8.08C29.90 8.08 29.67 7.67 29.67 7.13C29.67 6.59 29.90 6.16 30.41 6.16C30.93 6.16 31.15 6.59 31.15 7.13ZM39.70 10.19C39.70 10.19 39.70 7.88 39.70 7.91C39.47 7.98 39.12 8.02 38.88 8.02C38.60 8.02 38.60 7.87 38.60 7.57C38.60 7.57 38.60 6.15 38.60 6.15L39.70 6.15L39.70 3.74L38.60 3.74L38.60 1.95L35.66 1.95L35.66 3.74L34.65 3.74L34.65 6.15L35.66 6.15C35.66 6.15 35.66 7.57 35.66 7.57C35.66 9.98 36.61 10.50 38.33 10.50C38.81 10.50 39.26 10.36 39.70 10.19Z"></path></g><!----><g data-v-423bf9ae="" id="10824803-5f55-4d2a-aaa1-f4b78f36f8aa" transform="matrix(1.1111111111111112,0,0,1.1111111111111112,0.44444444444444287,-11.111111111111114)" stroke="none" fill="white"><path d="M35 47.739C35 40.151 41.151 34 48.739 34H66V23.739C66 16.151 59.849 10 52.261 10H13.739C6.151 10 0 16.151 0 23.739v21.522C0 52.85 6.151 59 13.739 59H35V47.739z"></path><path d="M100 63.262C100 70.85 93.849 77 86.261 77H49.739C42.151 77 36 70.85 36 63.262V48.738C36 41.151 42.151 35 49.739 35H86.26C93.849 35 100 41.151 100 48.738v14.524zM12 57L4 72l27-14z"></path><path d="M64 75h21l6 16z"></path></g><!----></svg>